<svg version="1.1" id="Layer_1" xmlns="http://www.w3.org/2000/svg" xmlns:xlink="http://www.w3.org/1999/xlink" x="0px" y="0px"
	 width="100%" viewBox="0 0 500 500" enable-background="new 0 0 500 500" xml:space="preserve">
<path fill="#000101" opacity="1.000000" stroke="none" 
	d="
M348.000000,501.000000 
	C232.000031,501.000000 116.500053,501.000000 1.000062,501.000000 
	C1.000041,334.333405 1.000041,167.666794 1.000021,1.000151 
	C167.666550,1.000101 334.333099,1.000101 500.999756,1.000051 
	C500.999817,167.666519 500.999817,334.333038 500.999908,500.999786 
	C450.166656,501.000000 399.333344,501.000000 348.000000,501.000000 
M207.728851,340.311096 
	C207.728851,340.311096 207.664139,340.253479 207.626282,339.656799 
	C207.103317,339.422150 206.580353,339.187469 205.610062,338.537598 
	C204.845932,337.881592 204.081787,337.225586 202.867447,336.145050 
	C201.971848,335.081512 201.076263,334.018005 199.915329,332.312286 
	C197.877258,329.554504 195.839188,326.796722 193.530029,323.425568 
	C189.374146,316.575836 185.218277,309.726074 180.980270,302.175110 
	C180.500183,301.104095 180.020096,300.033051 179.538269,298.487335 
	C179.330643,298.066833 179.123032,297.646362 178.878250,296.399567 
	C178.686996,295.890747 178.495728,295.381958 178.437500,294.413940 
	C178.278442,293.972900 178.119400,293.531891 177.971237,292.339600 
	C176.322708,289.686066 174.674179,287.032562 173.025650,284.379028 
	C172.615433,284.562653 172.205231,284.746307 171.795013,284.929932 
	C171.795013,290.967224 171.795013,297.004547 171.589447,303.954498 
	C171.699341,312.607544 171.809219,321.260559 171.713882,330.105194 
	C171.684616,330.448181 171.821045,330.646454 172.448502,331.298492 
	C187.575195,346.329010 202.701889,361.359528 218.039764,376.599915 
	C219.997772,374.326996 221.763809,372.276947 223.935303,369.756226 
	C221.734528,367.778046 219.780792,366.021881 218.121460,363.569397 
	C222.689453,358.029053 220.707001,352.995056 216.661453,347.666412 
	C216.373657,347.495300 216.085861,347.324219 215.694870,346.667816 
	C215.523499,346.364410 215.271606,346.160370 214.850021,345.361267 
	C214.564468,342.900452 214.278931,340.439667 214.107605,337.522095 
	C214.107605,337.522095 214.217438,337.064270 214.495346,336.824860 
	C214.351181,336.540222 214.207016,336.255585 213.859085,335.295349 
	C213.180969,333.319763 212.502853,331.344177 211.742752,328.848572 
	C211.620209,328.722992 211.497681,328.597382 211.547958,328.142944 
	C211.341476,327.883209 211.135010,327.623444 210.371017,326.853424 
	C209.220688,324.325256 208.070374,321.797119 206.720581,318.590393 
	C201.511292,309.705658 194.696304,302.483948 185.701294,297.520050 
	C185.257309,297.855469 184.813324,298.190887 184.369339,298.526337 
	C189.828995,306.888367 195.288635,315.250366 201.012924,324.180145 
	C202.667648,326.120361 204.322388,328.060608 206.112579,330.633392 
	C207.414673,332.073364 208.716766,333.513336 210.084808,335.577362 
	C210.533218,335.796448 210.981628,336.015564 211.651215,336.373352 
	C211.651215,336.373352 211.786819,336.596466 211.346603,337.375244 
	C210.479050,338.719299 209.611496,340.063385 208.670273,341.316101 
	C208.670273,341.316101 208.651901,341.200226 208.670074,340.691254 
	C208.380585,340.580200 208.091110,340.469177 207.728851,340.311096 
M239.522430,325.526123 
	C239.386490,323.998596 239.250549,322.471100 239.102264,320.084656 
	C239.129654,318.081299 239.157028,316.077942 239.595154,313.398743 
	C239.454712,310.244324 239.314255,307.089935 239.110657,303.141602 
	C239.007233,302.089233 238.903809,301.036896 238.900009,299.251221 
	C238.568619,297.829681 238.237244,296.408142 237.935837,294.226746 
	C236.695419,291.354279 235.455017,288.481842 234.051682,284.965057 
	C232.054672,282.929352 230.057678,280.893646 227.936508,278.409546 
	C227.759888,278.121124 227.502808,277.965973 226.985840,277.368225 
	C226.671707,277.215546 226.357590,277.062866 225.437332,276.611176 
	C212.181091,266.922699 198.924850,257.234222 185.409302,247.356232 
	C183.923111,253.951904 185.553055,257.788574 190.904907,261.233521 
	C202.560226,268.735870 213.617203,277.167816 225.058594,285.799194 
	C225.726364,286.527710 226.394150,287.256195 227.191376,288.685272 
	C228.492569,291.442596 229.793777,294.199921 231.012558,297.800018 
	C231.124954,299.193329 231.237350,300.586639 231.384323,302.898529 
	C231.524734,306.221283 231.665131,309.544037 231.437546,313.718475 
	C231.533447,316.437317 231.629364,319.156128 231.382202,322.675323 
	C231.465591,324.104431 231.548981,325.533569 231.353485,327.776031 
	C231.443298,329.759064 231.533127,331.742096 231.318939,334.428345 
	C231.600937,335.478912 231.882935,336.529480 232.260910,337.779572 
	C232.260910,337.779572 232.443176,337.905273 232.276459,338.635956 
	C233.310883,343.394165 235.312103,347.435486 241.263748,349.120392 
	C240.510101,345.745697 239.756470,342.371033 239.084061,338.124817 
	C239.062256,336.084259 239.040451,334.043701 239.095459,331.547974 
	C239.095459,331.547974 239.091248,331.086395 239.462265,330.726379 
	C239.346649,330.116852 239.231018,329.507324 239.134338,328.257172 
	C239.074112,327.836029 239.013885,327.414917 239.095657,326.549377 
	C239.095657,326.549377 239.124390,326.083771 239.522430,325.526123 
M345.865204,274.284637 
	C345.764282,273.442474 345.663361,272.600281 345.633636,270.907990 
	C345.579224,268.917328 345.524841,266.926697 345.688446,264.044952 
	C345.640533,260.337219 345.592621,256.629486 345.729431,252.011765 
	C345.711426,244.062134 345.693420,236.112503 345.945648,227.474380 
	C345.889832,226.337326 345.834015,225.200272 345.778198,224.063217 
	C345.524963,224.046310 345.271698,224.029388 345.018463,224.012482 
	C344.703094,225.360138 344.387756,226.707809 343.654907,228.619553 
	C342.300690,231.352127 340.072449,233.994995 339.780823,236.836624 
	C339.234650,242.158539 339.810364,247.595596 339.647919,253.871811 
	C339.753937,257.248871 339.859955,260.625946 339.710358,264.828857 
	C339.736847,266.835693 339.763306,268.842529 339.421021,271.477875 
	C339.634552,273.316833 339.848083,275.155762 339.784180,277.545074 
	C339.795441,277.953125 339.806702,278.361145 339.234985,279.206818 
	C339.234985,284.082458 339.234985,288.958099 339.234985,294.422607 
	C345.989868,290.366241 346.965515,288.208984 345.485413,282.026154 
	C345.531677,279.721283 345.577972,277.416382 345.865204,274.284637 
M274.096069,331.128815 
	C274.070587,329.085419 274.045105,327.041992 274.168945,324.197174 
	C273.546783,321.844238 272.924622,319.491302 273.143250,317.094116 
	C273.437469,314.391907 273.731689,311.689697 274.212738,308.127563 
	C274.329285,304.734711 274.445862,301.341888 274.837708,297.231018 
	C277.282776,292.517151 279.727875,287.803284 282.770569,282.789246 
	C292.953552,275.629639 302.973785,268.222076 313.374512,261.394104 
	C320.794678,256.522797 321.566376,255.767288 320.127258,247.087021 
	C317.425354,248.903168 314.775055,250.576675 312.238800,252.408051 
	C301.082977,260.463379 289.960083,268.564331 278.216187,276.868103 
	C277.657379,277.508301 277.098602,278.148499 276.020142,279.059143 
	C275.313324,279.974579 274.606537,280.889984 273.264374,282.087708 
	C271.272125,286.715149 269.279907,291.342560 267.038788,296.439056 
	C266.989166,296.608948 266.939545,296.778870 266.585968,297.161865 
	C266.525482,297.269135 266.392731,297.399750 266.418365,297.479248 
	C266.488617,297.696991 266.625488,297.893250 266.711395,298.892212 
	C266.743408,301.901459 266.775421,304.910706 266.486694,308.711243 
	C266.462921,310.688721 266.439117,312.666199 266.109528,315.488770 
	C266.183319,316.076111 266.257080,316.663422 266.330688,318.087341 
	C266.466003,320.015198 266.601349,321.943085 266.400879,324.712982 
	C266.494080,326.781616 266.587280,328.850281 266.370117,331.742004 
	C266.427948,333.752808 266.485809,335.763580 266.255859,338.558167 
	C266.069855,342.504456 265.883820,346.450745 265.697784,350.397064 
	C266.311554,350.467865 266.925354,350.538696 267.539124,350.609497 
	C270.910858,347.017883 272.764862,342.714172 273.489624,336.957825 
	C273.628357,335.300537 273.767090,333.643250 274.096069,331.128815 
M256.923920,320.929962 
	C256.923920,320.929962 256.818573,321.047089 256.925262,320.114563 
	C256.749329,314.857635 256.573425,309.600677 256.678925,303.507202 
	C256.688141,298.985413 256.697327,294.463593 256.836578,289.025208 
	C256.801147,284.338501 256.765717,279.651825 256.878204,274.043152 
	C256.821930,267.017120 256.765625,259.991089 256.861023,252.043396 
	C256.835938,242.356171 256.810883,232.668961 256.928345,222.056671 
	C256.882629,215.362366 256.836945,208.668060 256.937439,201.061646 
	C256.883087,197.040802 256.828735,193.019958 256.936127,188.075760 
	C256.886963,182.380722 256.837830,176.685684 256.946381,170.066162 
	C256.944702,154.639832 256.931885,139.213486 256.951050,123.787178 
	C256.954773,120.804466 256.042175,117.944641 252.753235,118.486877 
	C251.272995,118.730904 249.240891,121.870514 249.216263,123.719696 
	C249.006454,139.473007 249.200867,155.231705 249.092728,171.911209 
	C249.158142,177.940674 249.223572,183.970123 249.105453,190.903625 
	C249.164108,194.591522 249.222763,198.279434 249.090103,202.886063 
	C249.144562,207.583969 249.199020,212.281891 249.070053,217.903549 
	C249.137924,229.924911 249.205811,241.946259 249.086914,254.892334 
	C249.141693,261.918182 249.196472,268.944061 249.074448,276.888092 
	C249.142792,281.240326 249.211121,285.592560 249.081772,290.862122 
	C249.140884,295.216064 249.199997,299.570038 249.070511,304.849579 
	C249.143967,309.871002 249.217422,314.892456 249.091736,320.772064 
	C249.072418,322.524567 249.053116,324.277100 248.471695,326.559937 
	C248.670090,329.037140 248.868484,331.514343 249.065994,334.728638 
	C249.104767,335.462891 249.143524,336.197174 249.068054,337.849792 
	C249.374939,341.618774 249.484756,345.421204 250.115692,349.135132 
	C250.291809,350.171844 251.999756,351.648193 253.017639,351.658386 
	C254.193756,351.670135 256.320801,350.379974 256.411682,349.489441 
	C256.902222,344.681488 256.889496,339.822235 257.071259,334.250580 
	C257.063354,333.519836 257.055450,332.789124 257.545166,331.419250 
	C257.389496,327.933502 257.233826,324.447723 256.923920,320.929962 
M296.015381,342.155823 
	C294.517883,343.397980 293.020386,344.640167 290.886414,345.859283 
	C289.934052,346.582336 288.981659,347.305389 287.700226,348.192902 
	C287.634552,348.295258 287.490021,348.433777 287.517395,348.493378 
	C287.613464,348.702606 287.768646,348.884705 287.846283,349.651886 
	C287.814911,350.035553 287.783508,350.419189 287.081329,351.120728 
	C286.461823,356.207031 285.842316,361.293335 284.864502,366.936707 
	C280.986237,370.856842 281.101379,371.258514 287.831818,376.643463 
	C296.556122,367.837769 305.281403,358.984741 314.061096,350.186005 
	C319.796387,344.438293 325.709198,338.863617 331.317627,332.996490 
	C332.661499,331.590576 333.797516,329.348724 333.852173,327.457306 
	C334.096771,318.994446 333.915894,310.519348 334.018250,301.113953 
	C334.018250,295.440063 334.018250,289.766174 334.018250,282.594177 
	C331.164978,286.168182 328.349854,288.200531 327.683746,290.786407 
	C324.743042,302.202911 318.931946,312.190063 312.730743,322.539185 
	C311.793243,323.978302 310.855743,325.417419 309.270630,327.056519 
	C306.285919,330.690826 303.301178,334.325134 299.761566,338.351868 
	C298.695251,339.516266 297.628937,340.680664 296.015381,342.155823 
M167.963943,211.535095 
	C167.676758,211.347580 167.389572,211.160065 167.031967,210.308395 
	C166.260910,206.261551 165.460907,202.219940 164.725952,198.166550 
	C163.756042,192.817276 160.309769,187.727005 163.355301,181.384644 
	C163.900269,179.582779 164.445251,177.780899 165.391113,175.395630 
	C166.088562,173.550613 166.636032,171.626022 167.553253,169.897614 
	C167.950363,169.149307 169.110062,168.805664 169.895157,169.049698 
	C176.557327,189.161560 180.041046,209.847733 180.942398,231.778229 
	C181.782135,233.747208 182.066818,236.526321 183.556381,237.546783 
	C190.499847,242.303818 197.776276,246.574905 205.290268,251.595840 
	C214.681839,257.454254 224.067154,263.322754 233.469437,269.163940 
	C235.774857,270.596161 238.403320,272.231171 240.268143,268.927399 
	C242.053650,265.764130 239.966263,263.679260 237.336319,262.077942 
	C230.860138,258.134766 224.395035,254.173355 217.511871,249.809906 
	C217.002609,249.562607 216.493362,249.315308 215.647614,248.574020 
	C215.120987,248.321106 214.594345,248.068192 213.717407,247.251740 
	C209.643265,244.786652 205.451981,242.492813 201.527573,239.808777 
	C197.521301,237.068756 193.777115,233.945557 189.798920,230.166946 
	C189.462479,223.944931 189.874893,217.571945 188.656525,211.527710 
	C184.036102,188.605850 178.887695,165.790405 173.936752,142.935181 
	C173.101089,142.831787 172.265427,142.728409 171.429764,142.625031 
	C168.935318,147.370773 166.440872,152.116516 163.295883,157.086731 
	C161.718460,160.385147 160.141052,163.683563 158.097687,167.619812 
	C157.392319,170.395721 156.686951,173.171646 155.704269,176.186005 
	C155.549606,176.423355 155.562973,176.650787 155.256134,177.537888 
	C155.191910,178.084961 155.127686,178.632034 154.630432,179.769897 
	C154.180450,181.171494 153.417450,182.556259 153.340973,183.977936 
	C153.136826,187.773422 151.666565,192.914307 153.533737,195.106613 
	C157.162216,199.366898 159.049164,203.814728 159.866058,209.817780 
	C160.498779,211.861359 161.131485,213.904953 161.725891,216.604446 
	C163.531296,219.736389 165.336716,222.868332 167.320496,226.636780 
	C168.946915,228.397171 170.573334,230.157547 172.199753,231.917938 
	C172.463623,231.761276 172.727509,231.604614 172.991379,231.447952 
	C172.348480,228.946594 171.705582,226.445221 171.067291,223.138397 
	C170.834335,222.380402 170.601395,221.622421 170.466934,220.500061 
	C170.435959,220.230026 170.305511,220.022446 170.064270,219.113129 
	C169.366043,216.767288 168.667816,214.421463 167.963943,211.535095 
M164.917999,270.037964 
	C164.887222,266.350586 164.856445,262.663208 164.954742,258.085327 
	C164.910187,255.386230 164.865631,252.687149 164.961411,249.063644 
	C165.019455,241.012390 166.495193,232.654175 160.094727,225.528427 
	C159.812576,225.369186 159.530441,225.209946 159.248291,225.050705 
	C159.255890,225.431671 159.263489,225.812622 159.271378,227.106155 
	C159.400726,234.389389 159.530090,241.672623 159.367706,249.827530 
	C159.475494,252.867706 159.583267,255.907883 159.383133,259.825775 
	C159.505859,263.498138 159.628586,267.170502 159.376892,271.674286 
	C159.455368,274.075562 159.533829,276.476837 159.290344,279.747803 
	C159.262711,282.073608 159.225235,284.399353 159.209625,286.725220 
	C159.181519,290.915375 161.747284,292.666382 165.862228,293.895203 
	C165.862228,288.210358 165.862228,283.081665 165.651062,277.195374 
	C165.371964,275.113159 165.092865,273.030945 164.917999,270.037964 
M184.889236,283.295532 
	C180.927887,278.310638 176.966537,273.325714 173.005188,268.340820 
	C172.571259,268.674530 172.137329,269.008270 171.703400,269.342010 
	C172.430084,275.735260 176.322678,280.245758 181.298279,284.832886 
	C182.910614,286.091095 184.522934,287.349274 186.135269,288.607483 
	C186.547623,288.177155 186.959961,287.746826 187.372314,287.316528 
	C186.636261,286.198853 185.900208,285.081207 184.889236,283.295532 
M365.880249,255.108124 
	C365.818176,253.060104 365.756073,251.012070 365.851776,248.078735 
	C365.800049,245.381119 365.748352,242.683502 365.873810,239.139175 
	C365.583679,235.765045 364.810303,232.349670 365.094238,229.024551 
	C365.941772,219.098953 360.223267,213.169159 352.851898,207.536499 
	C352.443054,207.486343 352.034180,207.436188 351.625336,207.386017 
	C351.702209,207.596268 351.779083,207.806503 351.623199,208.926910 
	C351.690399,219.933258 351.757599,230.939606 351.513184,242.651962 
	C351.607056,244.744034 351.700928,246.836121 351.495239,249.766937 
	C351.583832,251.823898 351.672424,253.880859 351.467712,256.770172 
	C351.545441,258.817627 351.623138,260.865051 351.381042,263.806244 
	C351.381042,270.481171 351.381042,277.156097 351.381042,285.133698 
	C358.514954,278.234863 366.126312,273.262115 365.883789,262.090027 
	C365.831482,260.051544 365.779175,258.013092 365.880249,255.108124 
M292.503021,173.795334 
	C292.503021,173.795334 292.538055,173.816208 293.067352,173.365051 
	C297.671082,164.904648 302.274841,156.444244 307.178894,147.571243 
	C307.182098,147.401169 307.185272,147.231094 307.705658,146.668030 
	C308.097778,145.442871 308.489899,144.217697 309.302094,142.398544 
	C310.428284,139.357224 311.554474,136.315918 313.034302,132.711212 
	C315.739380,124.970642 315.831696,124.825279 308.711548,120.303444 
	C304.526093,117.645370 300.087494,115.333588 295.597595,113.216263 
	C274.403748,103.221741 252.201126,99.897980 229.553162,106.293663 
	C218.387772,109.446716 208.011017,115.392448 196.583130,120.236282 
	C194.364197,121.867340 192.145264,123.498398 189.779785,125.237183 
	C191.418762,129.726730 192.925110,133.852936 194.690521,138.623520 
	C197.908264,145.837479 201.126007,153.051422 204.531036,160.977295 
	C207.778976,165.963257 210.828293,171.099487 214.409790,175.833099 
	C215.344330,177.068253 217.936081,177.049561 219.766724,177.606735 
	C220.065826,175.652084 221.254532,173.219299 220.506454,171.827469 
	C217.624496,166.465408 214.123123,161.436264 210.434341,155.661530 
	C208.329605,150.604340 206.300217,145.513916 204.089478,140.503494 
	C202.921112,137.855545 201.436920,135.346924 200.069321,132.100204 
	C200.029190,131.651184 199.989059,131.202164 200.191589,130.127213 
	C200.960526,129.141357 201.522324,127.697418 202.530838,127.241379 
	C211.420303,123.221611 220.074142,118.195068 229.395874,115.711418 
	C253.745682,109.223724 277.271698,112.387314 299.292175,124.945137 
	C301.465302,126.184433 303.138763,128.299988 304.656464,130.630554 
	C303.046692,135.733459 301.436951,140.836365 299.287872,146.363129 
	C297.501587,150.201080 295.715302,154.039032 293.391083,158.289978 
	C290.475494,162.633087 287.329620,166.846725 284.773743,171.392075 
	C283.920105,172.910156 284.574921,175.276443 284.540161,177.254990 
	C286.355469,177.166412 288.170776,177.077820 290.538208,176.746399 
	C291.204559,175.769363 291.870911,174.792328 292.503021,173.795334 
M335.536621,219.465744 
	C335.374298,220.356842 335.211975,221.247925 334.818298,222.270615 
	C334.818298,222.270615 334.768860,222.529770 334.768860,222.529770 
	C334.768860,222.529770 334.974182,222.695007 334.515289,223.500656 
	C334.373871,224.411453 334.232422,225.322250 333.743225,226.735199 
	C333.419800,228.196594 333.096375,229.658005 332.772949,231.119400 
	C333.045258,231.209747 333.317566,231.300095 333.589874,231.390442 
	C334.456665,230.275528 335.323486,229.160614 336.746674,227.686554 
	C339.129150,223.694519 341.511597,219.702484 344.169250,215.413269 
	C344.144104,215.030106 344.118958,214.646957 344.464813,213.462860 
	C344.841003,210.633469 345.217194,207.804092 345.834564,204.209427 
	C346.612610,202.336166 346.890717,199.442169 348.258209,198.772369 
	C353.264862,196.320084 354.170624,192.774872 352.554413,187.180405 
	C350.833435,181.733994 349.112427,176.287582 347.236267,170.375793 
	C347.158661,170.060806 347.081055,169.745819 347.245300,169.283508 
	C347.245300,169.283508 347.160858,169.013229 347.282990,168.227798 
	C344.372894,158.964340 339.422607,150.843018 333.440002,142.692383 
	C332.556580,144.989441 331.822968,146.662186 331.261932,148.390945 
	C323.332977,172.824890 317.357269,197.709763 315.639221,223.390579 
	C315.220032,229.656464 313.641998,234.117218 307.183136,236.902512 
	C294.089172,245.308624 280.998352,253.719574 267.898743,262.116882 
	C265.195435,263.849792 263.573669,266.356415 265.402405,269.192810 
	C267.268829,272.087646 270.018707,270.787354 272.393707,269.222015 
	C276.541718,266.488068 280.747192,263.839905 284.863190,261.058960 
	C295.263397,254.032074 305.627197,246.951340 316.740234,240.029282 
	C321.719513,238.377914 324.723175,235.669525 324.175568,229.672409 
	C323.773621,225.270264 324.480865,220.728760 325.007812,216.286621 
	C326.996063,199.526291 330.953522,183.222717 336.683624,166.382172 
	C337.775818,168.782333 338.499481,170.372589 339.246704,172.715317 
	C340.706085,178.127716 342.165497,183.540131 343.152710,189.611084 
	C341.993469,194.034836 340.834198,198.458588 339.200256,203.419586 
	C338.819366,205.330902 338.438477,207.242218 337.854248,209.271484 
	C337.854248,209.271484 338.006378,209.638016 337.669250,210.469330 
	C337.132874,213.035873 336.596527,215.602402 335.835907,218.287857 
	C335.835907,218.287857 335.785645,218.533691 335.785645,218.533691 
	C335.785645,218.533691 335.993958,218.672791 335.536621,219.465744 
M140.662064,270.359833 
	C140.715729,270.582062 140.854614,270.670013 141.242477,271.178925 
	C141.517715,271.443268 141.792969,271.707611 142.165070,272.647186 
	C145.665619,276.616425 149.166153,280.585663 152.666702,284.554901 
	C153.056610,284.281250 153.446533,284.007629 153.836441,283.733978 
	C153.836441,280.147491 153.836441,276.560974 154.016434,272.075195 
	C153.948120,268.702667 153.879822,265.330139 153.947769,261.044708 
	C153.899246,257.024170 153.850739,253.003647 153.946274,248.117035 
	C153.889053,246.072754 153.831818,244.028473 153.930603,241.098328 
	C153.882065,238.403137 153.833511,235.707932 153.955368,232.502716 
	C153.895996,232.333572 153.836639,232.164444 153.902542,231.066208 
	C153.787140,223.396164 153.671738,215.726105 153.675064,207.695938 
	C153.430038,207.785904 153.185028,207.875885 152.240662,207.961548 
	C149.237885,210.781891 145.889954,213.319717 143.302917,216.480347 
	C137.598145,223.449936 139.192841,231.892334 139.097214,240.874725 
	C139.147430,243.910233 139.197632,246.945740 139.059998,250.887177 
	C139.120117,254.578812 139.180222,258.270447 139.061081,262.811615 
	C139.642593,265.250305 140.224106,267.689026 140.662064,270.359833 
M304.307434,310.124146 
	C298.445435,318.371735 293.189667,326.899750 291.526794,337.089905 
	C291.930054,337.385468 292.333344,337.681061 292.736633,337.976624 
	C298.205902,331.001862 303.675140,324.027130 309.700531,316.687317 
	C313.399506,310.340240 317.098450,303.993195 320.797424,297.646118 
	C320.320374,297.274902 319.843323,296.903717 319.366272,296.532532 
	C314.534058,300.930573 309.701874,305.328613 304.307434,310.124146 
M179.010788,245.393570 
	C176.932938,243.170288 174.855072,240.947006 171.764236,237.639847 
	C171.764236,245.228775 171.487579,251.149750 171.914337,257.019562 
	C172.063675,259.073700 173.944214,261.002014 175.274780,263.611847 
	C179.019348,266.863281 182.528381,270.447906 186.557755,273.296509 
	C194.811432,279.131409 203.246063,284.729156 211.826324,290.070984 
	C214.190125,291.542633 217.331604,291.765076 220.116257,292.560699 
	C218.609772,289.551727 217.105789,286.541504 215.588303,283.538086 
	C215.521423,283.405701 215.334717,283.330261 215.197586,283.237518 
	C207.382065,277.952087 199.807220,272.255615 191.683090,267.496887 
	C183.265366,262.566223 176.623093,257.158752 179.010788,245.393570 
M229.187912,387.521271 
	C231.436432,389.064636 233.631271,391.841095 235.942596,391.941711 
	C246.999054,392.422974 258.101715,392.483978 269.152344,391.952911 
	C271.557037,391.837372 273.815491,388.678894 276.892395,386.768921 
	C284.535034,381.560181 284.665649,380.724243 278.547699,374.295044 
	C274.888641,370.449738 270.601074,367.069336 267.571503,362.789429 
	C263.003235,356.335785 257.204468,354.183105 249.760056,355.457367 
	C247.571365,355.832031 244.684128,355.732971 243.381027,357.076752 
	C236.026001,364.661438 229.055862,372.619415 221.515701,380.934143 
	C224.145828,383.013672 226.562744,384.924591 229.187912,387.521271 
M333.820435,251.437164 
	C333.820435,247.255859 333.820435,243.074554 333.820435,238.449051 
	C327.905334,242.096802 324.864227,246.195877 325.642792,252.751175 
	C325.918915,255.075851 325.313690,258.706635 323.736755,259.856171 
	C313.026550,267.663666 302.150269,275.290619 290.901611,282.291412 
	C285.608521,285.585632 284.262115,290.247192 283.394623,295.965790 
	C298.563080,286.288025 313.047913,275.850037 327.711029,265.668823 
	C332.542786,262.313965 334.931458,258.271973 333.820435,251.437164 
M333.431976,269.571259 
	C332.593781,269.750244 331.523651,269.659393 330.953247,270.149841 
	C325.172424,275.120056 320.438721,280.860870 318.554413,287.108490 
	C318.982178,286.804810 320.169739,285.809875 321.492004,285.049103 
	C327.410583,281.643890 332.846710,277.883759 333.431976,269.571259 
M171.485840,283.508636 
	C171.485840,283.508636 171.518906,283.489899 171.485840,283.508636 
z"/>
<path fill="#F1F3F3" opacity="1.000000" stroke="none" 
	d="
M305.044128,130.008835 
	C303.138763,128.299988 301.465302,126.184433 299.292175,124.945137 
	C277.271698,112.387314 253.745682,109.223724 229.395874,115.711418 
	C220.074142,118.195068 211.420303,123.221611 202.530838,127.241379 
	C201.522324,127.697418 200.960526,129.141357 200.033997,130.118820 
	C198.489044,129.031311 197.101715,127.952194 196.779922,127.701904 
	C197.006516,124.227791 197.141968,122.151146 197.277405,120.074493 
	C208.011017,115.392448 218.387772,109.446716 229.553162,106.293663 
	C252.201126,99.897980 274.403748,103.221741 295.597595,113.216263 
	C300.087494,115.333588 304.526093,117.645370 308.711548,120.303444 
	C315.831696,124.825279 315.739380,124.970642 312.493561,132.846252 
	C309.649933,131.990479 307.347015,130.999649 305.044128,130.008835 
z"/>
<path fill="#F2EFF6" opacity="1.000000" stroke="none" 
	d="
M339.223145,171.962830 
	C338.499481,170.372589 337.775818,168.782333 336.683624,166.382172 
	C330.953522,183.222717 326.996063,199.526291 325.007812,216.286621 
	C324.480865,220.728760 323.773621,225.270264 324.175568,229.672409 
	C324.723175,235.669525 321.719513,238.377914 316.371460,239.638428 
	C316.314545,238.255875 316.626343,237.264206 317.242554,235.304443 
	C314.973938,235.965149 313.291016,236.615143 311.548157,236.907227 
	C310.365875,237.105362 309.099396,236.801010 307.870575,236.721375 
	C313.641998,234.117218 315.220032,229.656464 315.639221,223.390579 
	C317.357269,197.709763 323.332977,172.824890 331.261932,148.390945 
	C331.822968,146.662186 332.556580,144.989441 333.440002,142.692383 
	C339.422607,150.843018 344.372894,158.964340 346.836975,168.583557 
	C342.831390,167.172791 340.417511,168.122314 339.223145,171.962830 
z"/>
<path fill="#ECF6F7" opacity="1.000000" stroke="none" 
	d="
M181.084183,230.974884 
	C180.041046,209.847733 176.557327,189.161560 169.786301,168.332672 
	C165.159393,165.420959 164.826294,160.995895 163.946411,156.862244 
	C166.440872,152.116516 168.935318,147.370773 171.429764,142.625031 
	C172.265427,142.728409 173.101089,142.831787 173.936752,142.935181 
	C178.887695,165.790405 184.036102,188.605850 188.656525,211.527710 
	C189.874893,217.571945 189.462479,223.944931 189.416931,230.584442 
	C186.384674,230.992935 183.734436,230.983917 181.084183,230.974884 
z"/>
<path fill="#ECEFF5" opacity="1.000000" stroke="none" 
	d="
M228.979660,386.835541 
	C226.562744,384.924591 224.145828,383.013672 221.515701,380.934143 
	C229.055862,372.619415 236.026001,364.661438 243.381027,357.076752 
	C244.684128,355.732971 247.571365,355.832031 249.760056,355.457367 
	C257.204468,354.183105 263.003235,356.335785 267.571503,362.789429 
	C270.601074,367.069336 274.888641,370.449738 278.547699,374.295044 
	C284.665649,380.724243 284.535034,381.560181 276.469910,386.458496 
	C275.693604,385.780853 275.339752,385.413605 274.865051,384.734680 
	C272.672821,382.413116 270.601471,380.403198 268.373352,378.117310 
	C265.814484,375.608551 263.549927,371.658417 260.985535,371.453064 
	C251.943710,370.729065 241.841354,368.283844 235.913910,379.300934 
	C233.741364,381.664886 231.803284,383.793854 229.641846,386.002106 
	C229.058228,386.208252 228.911957,386.459656 228.979660,386.835541 
z"/>
<path fill="#ECEFF5" opacity="1.000000" stroke="none" 
	d="
M333.888611,302.048645 
	C333.915894,310.519348 334.096771,318.994446 333.852173,327.457306 
	C333.797516,329.348724 332.661499,331.590576 331.317627,332.996490 
	C325.709198,338.863617 319.796387,344.438293 314.061096,350.186005 
	C305.281403,358.984741 296.556122,367.837769 287.831818,376.643463 
	C281.101379,371.258514 280.986237,370.856842 285.371277,366.551086 
	C289.300507,362.847382 292.723022,359.529297 296.456665,356.086243 
	C298.890961,353.706604 301.014069,351.451843 303.421082,349.046844 
	C304.808807,347.603943 305.912598,346.311310 307.330719,344.914429 
	C309.118317,343.198151 310.591583,341.586090 312.294373,339.732422 
	C314.972321,336.782166 317.420807,334.073486 320.174927,331.407654 
	C321.962097,329.309143 323.443634,327.167786 324.976440,324.564697 
	C323.955353,315.133942 326.209778,307.501617 333.888611,302.048645 
z"/>
<path fill="#ECF6F7" opacity="1.000000" stroke="none" 
	d="
M217.827026,364.265747 
	C219.780792,366.021881 221.734528,367.778046 223.935303,369.756226 
	C221.763809,372.276947 219.997772,374.326996 218.039764,376.599915 
	C202.701889,361.359528 187.575195,346.329010 172.318893,330.780945 
	C172.189285,330.263397 171.919113,329.913605 171.919098,329.913605 
	C171.809219,321.260559 171.699341,312.607544 172.006958,303.585510 
	C173.608231,304.150635 174.792007,305.084778 176.124863,306.340027 
	C180.315033,311.460602 180.158859,317.170563 180.102539,322.977142 
	C180.082672,325.024628 181.290619,327.083984 182.032547,329.341278 
	C182.290649,329.811066 182.519455,329.997345 182.966721,330.379028 
	C184.036438,331.508972 184.952988,332.363312 186.008972,333.458771 
	C186.726776,334.145386 187.305161,334.590851 188.045197,335.326477 
	C190.147873,337.391174 192.088898,339.165741 194.196426,341.208710 
	C195.758224,342.701965 197.153519,343.926788 198.675995,345.430084 
	C199.639465,346.535858 200.475739,347.363159 201.495560,348.475861 
	C203.257614,350.225739 204.836105,351.690277 206.612442,353.447937 
	C210.482529,357.249329 214.154770,360.757538 217.827026,364.265747 
z"/>
<path fill="#EAC9E0" opacity="1.000000" stroke="none" 
	d="
M333.819946,251.916626 
	C334.931458,258.271973 332.542786,262.313965 327.711029,265.668823 
	C313.047913,275.850037 298.563080,286.288025 283.394623,295.965790 
	C284.262115,290.247192 285.608521,285.585632 290.901611,282.291412 
	C302.150269,275.290619 313.026550,267.663666 323.736755,259.856171 
	C325.313690,258.706635 325.918915,255.075851 325.642792,252.751175 
	C324.864227,246.195877 327.905334,242.096802 333.820435,238.449051 
	C333.820435,243.074554 333.820435,247.255859 333.819946,251.916626 
z"/>
<path fill="#EDE0EF" opacity="1.000000" stroke="none" 
	d="
M307.526855,236.811951 
	C309.099396,236.801010 310.365875,237.105362 311.548157,236.907227 
	C313.291016,236.615143 314.973938,235.965149 317.242554,235.304443 
	C316.626343,237.264206 316.314545,238.255875 316.004150,239.569870 
	C305.627197,246.951340 295.263397,254.032074 284.863190,261.058960 
	C280.747192,263.839905 276.541718,266.488068 272.393707,269.222015 
	C270.018707,270.787354 267.268829,272.087646 265.402405,269.192810 
	C263.573669,266.356415 265.195435,263.849792 267.898743,262.116882 
	C280.998352,253.719574 294.089172,245.308624 307.526855,236.811951 
M306.585815,239.516983 
	C306.585815,239.516983 306.477844,239.580856 306.585815,239.516983 
z"/>
<path fill="#EAC9E0" opacity="1.000000" stroke="none" 
	d="
M278.825256,276.648743 
	C289.960083,268.564331 301.082977,260.463379 312.238800,252.408051 
	C314.775055,250.576675 317.425354,248.903168 320.127258,247.087021 
	C321.566376,255.767288 320.794678,256.522797 313.374512,261.394104 
	C302.973785,268.222076 292.953552,275.629639 282.078491,282.935028 
	C280.215668,283.547607 279.031311,283.983185 277.876953,284.487457 
	C275.118988,285.692352 273.919830,284.635284 273.899719,281.805389 
	C274.606537,280.889984 275.313324,279.974579 276.657257,278.932678 
	C277.804657,278.087036 278.314972,277.367889 278.825256,276.648743 
z"/>
<path fill="#A3F3F0" opacity="1.000000" stroke="none" 
	d="
M178.968140,246.096939 
	C176.623093,257.158752 183.265366,262.566223 191.683090,267.496887 
	C199.807220,272.255615 207.382065,277.952087 215.197586,283.237518 
	C215.334717,283.330261 215.521423,283.405701 215.588303,283.538086 
	C217.105789,286.541504 218.609772,289.551727 220.116257,292.560699 
	C217.331604,291.765076 214.190125,291.542633 211.826324,290.070984 
	C203.246063,284.729156 194.811432,279.131409 186.557755,273.296509 
	C182.528381,270.447906 179.019348,266.863281 175.392548,263.088043 
	C175.612747,261.500122 175.565094,259.550995 175.840118,259.504333 
	C180.106537,258.780701 178.835114,255.522217 178.949417,252.969330 
	C179.051804,250.682846 178.969147,248.388062 178.968140,246.096939 
z"/>
<path fill="#F3F8FB" opacity="1.000000" stroke="none" 
	d="
M249.274231,170.988800 
	C249.200867,155.231705 249.006454,139.473007 249.216263,123.719696 
	C249.240891,121.870514 251.272995,118.730904 252.753235,118.486877 
	C256.042175,117.944641 256.954773,120.804466 256.951050,123.787178 
	C256.931885,139.213486 256.944702,154.639832 256.513794,170.535339 
	C253.812195,170.999268 251.543198,170.994034 249.274231,170.988800 
z"/>
<path fill="#ADF3F1" opacity="1.000000" stroke="none" 
	d="
M224.918716,285.219849 
	C213.617203,277.167816 202.560226,268.735870 190.904907,261.233521 
	C185.553055,257.788574 183.923111,253.951904 185.409302,247.356232 
	C198.924850,257.234222 212.181091,266.922699 225.857285,277.000275 
	C226.573257,277.574310 226.869278,277.759216 227.165298,277.944153 
	C227.502808,277.965973 227.759888,278.121124 227.861053,278.965515 
	C226.829971,281.420959 225.874344,283.320404 224.918716,285.219849 
z"/>
<path fill="#F3F8FB" opacity="1.000000" stroke="none" 
	d="
M153.784973,233.012741 
	C153.833511,235.707932 153.882065,238.403137 153.445770,241.539429 
	C148.402252,241.314056 143.843536,240.647552 139.284836,239.981049 
	C139.192841,231.892334 137.598145,223.449936 143.302917,216.480347 
	C145.889954,213.319717 149.237885,210.781891 152.735565,208.046783 
	C153.230484,208.132019 153.556335,208.056061 153.556335,208.056061 
	C153.671738,215.726105 153.787140,223.396164 153.691650,231.624329 
	C153.582169,232.459198 153.683563,232.735977 153.784973,233.012741 
z"/>
<path fill="#F3F8FB" opacity="1.000000" stroke="none" 
	d="
M353.054871,207.956268 
	C360.223267,213.169159 365.941772,219.098953 365.094238,229.024551 
	C364.810303,232.349670 365.583679,235.765045 365.360168,239.561325 
	C360.505951,240.637634 356.165344,241.291794 351.824768,241.945953 
	C351.757599,230.939606 351.690399,219.933258 352.041321,208.495422 
	C352.657898,208.028046 352.856384,207.992157 353.054871,207.956268 
z"/>
<path fill="#B0B3BF" opacity="1.000000" stroke="none" 
	d="
M333.953430,301.581299 
	C326.209778,307.501617 323.955353,315.133942 324.576904,324.547607 
	C320.473755,324.076019 316.821503,323.159790 313.169250,322.243530 
	C318.931946,312.190063 324.743042,302.202911 327.683746,290.786407 
	C328.349854,288.200531 331.164978,286.168182 334.018250,282.594177 
	C334.018250,289.766174 334.018250,295.440063 333.953430,301.581299 
z"/>
<path fill="#D0F2F2" opacity="1.000000" stroke="none" 
	d="
M214.067719,247.815292 
	C214.594345,248.068192 215.120987,248.321106 215.851135,249.095673 
	C216.678253,249.817963 217.301865,250.018631 217.925476,250.219299 
	C224.395035,254.173355 230.860138,258.134766 237.336319,262.077942 
	C239.966263,263.679260 242.053650,265.764130 240.268143,268.927399 
	C238.403320,272.231171 235.774857,270.596161 233.469437,269.163940 
	C224.067154,263.322754 214.681839,257.454254 205.429138,251.167816 
	C208.401245,249.764938 211.234482,248.790115 214.067719,247.815292 
z"/>
<path fill="#DEF4F6" opacity="1.000000" stroke="none" 
	d="
M213.892563,247.533508 
	C211.234482,248.790115 208.401245,249.764938 205.250809,250.879791 
	C197.776276,246.574905 190.499847,242.303818 183.556381,237.546783 
	C182.066818,236.526321 181.782135,233.747208 181.013290,231.376556 
	C183.734436,230.983917 186.384674,230.992935 189.476562,230.996033 
	C193.777115,233.945557 197.521301,237.068756 201.527573,239.808777 
	C205.451981,242.492813 209.643265,244.786652 213.892563,247.533508 
z"/>
<path fill="#B7E3E5" opacity="1.000000" stroke="none" 
	d="
M163.001236,181.986893 
	C160.309769,187.727005 163.756042,192.817276 164.725952,198.166550 
	C165.460907,202.219940 166.260910,206.261551 166.685776,210.639343 
	C164.228592,210.316788 162.117615,209.663300 160.006622,209.009796 
	C159.049164,203.814728 157.162216,199.366898 153.533737,195.106613 
	C151.666565,192.914307 153.136826,187.773422 153.340973,183.977936 
	C153.417450,182.556259 154.180450,181.171494 154.939743,179.821075 
	C157.833115,180.577133 160.417175,181.282013 163.001236,181.986893 
z"/>
<path fill="#617886" opacity="1.000000" stroke="none" 
	d="
M229.083786,387.178406 
	C228.911957,386.459656 229.058228,386.208252 230.118713,386.025879 
	C238.338501,385.982788 245.859131,385.921814 253.377243,386.032532 
	C258.737122,386.111450 264.094299,386.571472 269.451172,386.545502 
	C271.298462,386.536530 273.141113,385.573547 274.985901,385.046356 
	C275.339752,385.413605 275.693604,385.780853 276.094360,386.535004 
	C273.815491,388.678894 271.557037,391.837372 269.152344,391.952911 
	C258.101715,392.483978 246.999054,392.422974 235.942596,391.941711 
	C233.631271,391.841095 231.436432,389.064636 229.083786,387.178406 
z"/>
<path fill="#C2CAD3" opacity="1.000000" stroke="none" 
	d="
M256.785828,222.981735 
	C256.810883,232.668961 256.835938,242.356171 256.410339,252.513855 
	C253.730988,253.312088 251.502350,253.639847 249.273697,253.967621 
	C249.205811,241.946259 249.137924,229.924911 249.450256,217.494751 
	C251.031067,220.369949 252.178497,223.716660 256.785828,222.981735 
z"/>
<path fill="#98A9B3" opacity="1.000000" stroke="none" 
	d="
M365.764679,262.957764 
	C366.126312,273.262115 358.514954,278.234863 351.381042,285.133698 
	C351.381042,277.156097 351.381042,270.481171 351.941986,263.424072 
	C356.923523,263.013824 361.344086,262.985809 365.764679,262.957764 
z"/>
<path fill="#D0F2F2" opacity="1.000000" stroke="none" 
	d="
M204.343765,160.265366 
	C201.126007,153.051422 197.908264,145.837479 194.883896,138.238892 
	C196.749954,136.161316 198.422623,134.468369 200.095306,132.775406 
	C201.436920,135.346924 202.921112,137.855545 204.089478,140.503494 
	C206.300217,145.513916 208.329605,150.604340 210.419098,156.211670 
	C208.383820,157.929642 206.363785,159.097504 204.343765,160.265366 
z"/>
<path fill="#9BBDC5" opacity="1.000000" stroke="none" 
	d="
M200.748291,323.612396 
	C195.288635,315.250366 189.828995,306.888367 184.369339,298.526337 
	C184.813324,298.190887 185.257309,297.855469 185.701294,297.520050 
	C194.696304,302.483948 201.511292,309.705658 206.763031,319.286560 
	C204.786423,321.192596 202.767349,322.402496 200.748291,323.612396 
z"/>
<path fill="#9BBDC5" opacity="1.000000" stroke="none" 
	d="
M181.937958,329.137939 
	C181.290619,327.083984 180.082672,325.024628 180.102539,322.977142 
	C180.158859,317.170563 180.315033,311.460602 176.185852,306.028442 
	C177.752625,304.555908 179.407501,303.716125 181.062393,302.876343 
	C185.218277,309.726074 189.374146,316.575836 193.295685,323.721985 
	C189.461502,324.506622 185.861664,324.994873 181.937958,325.527039 
	C181.937958,325.930481 181.937958,327.534210 181.937958,329.137939 
z"/>
<path fill="#EDE0EF" opacity="1.000000" stroke="none" 
	d="
M339.234924,172.339081 
	C340.417511,168.122314 342.831390,167.172791 346.775879,168.976257 
	C347.160858,169.013229 347.245300,169.283508 347.196564,169.597855 
	C347.286072,170.206955 347.367279,170.516617 347.391449,170.841171 
	C349.112427,176.287582 350.833435,181.733994 352.216919,187.634796 
	C349.127899,188.376968 346.376404,188.664749 343.624878,188.952545 
	C342.165497,183.540131 340.706085,178.127716 339.234924,172.339081 
z"/>
<path fill="#EDE0EF" opacity="1.000000" stroke="none" 
	d="
M293.929016,157.876999 
	C295.715302,154.039032 297.501587,150.201080 299.917542,146.117493 
	C305.185974,139.881775 305.185974,139.881775 308.882019,142.992523 
	C308.489899,144.217697 308.097778,145.442871 307.268188,146.915649 
	C306.732697,147.235886 306.540314,147.347015 306.551697,147.375000 
	C306.638184,147.587112 306.764648,147.782928 306.878601,147.983841 
	C302.274841,156.444244 297.671082,164.904648 292.683472,173.178558 
	C292.919617,171.198257 293.064301,168.957840 294.250214,167.695602 
	C297.608734,164.120850 296.705872,161.057556 293.929016,157.876999 
z"/>
<path fill="#D5D9E4" opacity="1.000000" stroke="none" 
	d="
M153.802216,248.983093 
	C153.850739,253.003647 153.899246,257.024170 153.513855,261.517975 
	C148.466751,261.981537 143.853531,261.971802 139.240326,261.962067 
	C139.180222,258.270447 139.120117,254.578812 139.564484,250.430679 
	C144.646713,249.643829 149.224457,249.313461 153.802216,248.983093 
z"/>
<path fill="#ADF3F1" opacity="1.000000" stroke="none" 
	d="
M204.437408,160.621338 
	C206.363785,159.097504 208.383820,157.929642 210.628265,156.522400 
	C214.123123,161.436264 217.624496,166.465408 220.506454,171.827469 
	C221.254532,173.219299 220.065826,175.652084 219.766724,177.606735 
	C217.936081,177.049561 215.344330,177.068253 214.409790,175.833099 
	C210.828293,171.099487 207.778976,165.963257 204.437408,160.621338 
z"/>
<path fill="#B0B3BF" opacity="1.000000" stroke="none" 
	d="
M249.180298,254.429977 
	C251.502350,253.639847 253.730988,253.312088 256.334473,252.974686 
	C256.765625,259.991089 256.821930,267.017120 256.422760,274.505646 
	C253.728622,275.302063 251.489944,275.635986 249.251251,275.969910 
	C249.196472,268.944061 249.141693,261.918182 249.180298,254.429977 
z"/>
<path fill="#98A9B3" opacity="1.000000" stroke="none" 
	d="
M309.144409,317.052368 
	C303.675140,324.027130 298.205902,331.001862 292.736633,337.976624 
	C292.333344,337.681061 291.930054,337.385468 291.526794,337.089905 
	C293.189667,326.899750 298.445435,318.371735 304.627258,310.347656 
	C304.712891,312.460663 304.478729,314.350159 304.181580,316.747620 
	C306.002747,316.859467 307.573578,316.955902 309.144409,317.052368 
z"/>
<path fill="#B2D0D7" opacity="1.000000" stroke="none" 
	d="
M139.150696,262.386841 
	C143.853531,261.971802 148.466751,261.981537 153.445740,261.974426 
	C153.879822,265.330139 153.948120,268.702667 153.616791,272.583374 
	C151.376587,273.322418 149.500824,273.884583 147.705032,273.693909 
	C145.786774,273.490204 143.943954,272.575989 142.068207,271.971924 
	C141.792969,271.707611 141.517715,271.443268 141.161530,270.798004 
	C141.080582,270.417084 140.805603,270.127716 140.805603,270.127716 
	C140.224106,267.689026 139.642593,265.250305 139.150696,262.386841 
z"/>
<path fill="#C2CAD3" opacity="1.000000" stroke="none" 
	d="
M338.057617,209.153534 
	C338.438477,207.242218 338.819366,205.330902 339.773102,203.288452 
	C342.095093,203.763123 343.844208,204.368912 345.593353,204.974701 
	C345.217194,207.804092 344.841003,210.633469 344.190491,214.028961 
	C343.908813,214.966873 343.901428,215.338654 343.894043,215.710449 
	C341.511597,219.702484 339.129150,223.694519 336.157593,227.821945 
	C335.076019,227.382568 334.583496,226.807816 334.091003,226.233047 
	C334.232422,225.322250 334.373871,224.411453 334.806458,223.016266 
	C335.097626,222.531891 335.049652,222.139023 335.049652,222.139023 
	C335.211975,221.247925 335.374298,220.356842 335.823059,218.995789 
	C336.109467,218.525833 336.060150,218.168930 336.060181,218.168930 
	C336.596527,215.602402 337.132874,213.035873 337.892426,209.982056 
	C338.115601,209.494797 338.057617,209.153534 338.057617,209.153534 
z"/>
<path fill="#D5D9E4" opacity="1.000000" stroke="none" 
	d="
M256.857056,222.519196 
	C252.178497,223.716660 251.031067,220.369949 249.541977,217.032867 
	C249.199020,212.281891 249.144562,207.583969 249.601807,202.426666 
	C252.339432,201.969437 254.565353,201.971603 256.791260,201.973755 
	C256.836945,208.668060 256.882629,215.362366 256.857056,222.519196 
z"/>
<path fill="#ECEFF5" opacity="1.000000" stroke="none" 
	d="
M249.183472,171.450012 
	C251.543198,170.994034 253.812195,170.999268 256.434937,170.997574 
	C256.837830,176.685684 256.886963,182.380722 256.472412,188.536041 
	C253.768768,189.330734 251.528885,189.665161 249.288986,189.999588 
	C249.223572,183.970123 249.158142,177.940674 249.183472,171.450012 
z"/>
<path fill="#B0B3BF" opacity="1.000000" stroke="none" 
	d="
M309.422485,316.869843 
	C307.573578,316.955902 306.002747,316.859467 304.181580,316.747620 
	C304.478729,314.350159 304.712891,312.460663 304.908386,310.148926 
	C309.701874,305.328613 314.534058,300.930573 319.366272,296.532532 
	C319.843323,296.903717 320.320374,297.274902 320.797424,297.646118 
	C317.098450,303.993195 313.399506,310.340240 309.422485,316.869843 
z"/>
<path fill="#7A909A" opacity="1.000000" stroke="none" 
	d="
M319.869324,331.364807 
	C317.420807,334.073486 314.972321,336.782166 311.907227,339.741028 
	C307.632568,339.313965 303.974518,338.636688 300.316437,337.959442 
	C303.301178,334.325134 306.285919,330.690826 309.606415,327.366852 
	C309.852356,330.091278 310.624481,331.202759 313.400970,330.839844 
	C315.498383,330.565704 317.709045,331.158112 319.869324,331.364807 
z"/>
<path fill="#D5D9E4" opacity="1.000000" stroke="none" 
	d="
M345.713959,204.592072 
	C343.844208,204.368912 342.095093,203.763123 340.010437,203.019836 
	C340.834198,198.458588 341.993469,194.034836 343.388794,189.281815 
	C346.376404,188.664749 349.127899,188.376968 352.206451,188.025864 
	C354.170624,192.774872 353.264862,196.320084 348.258209,198.772369 
	C346.890717,199.442169 346.612610,202.336166 345.713959,204.592072 
z"/>
<path fill="#EAC9E0" opacity="1.000000" stroke="none" 
	d="
M345.675385,228.162872 
	C345.693420,236.112503 345.711426,244.062134 345.236938,252.474121 
	C343.136078,252.952576 341.527710,252.968674 339.919373,252.984772 
	C339.810364,247.595596 339.234650,242.158539 339.780823,236.836624 
	C340.072449,233.994995 342.300690,231.352127 344.131897,228.364136 
	C344.964417,228.126770 345.319885,228.144821 345.675385,228.162872 
z"/>
<path fill="#596979" opacity="1.000000" stroke="none" 
	d="
M249.290878,319.913879 
	C249.217422,314.892456 249.143967,309.871002 249.601349,304.405273 
	C252.220612,304.088593 254.309052,304.216156 256.397491,304.343750 
	C256.573425,309.600677 256.749329,314.857635 256.492126,320.549835 
	C253.802979,320.628052 251.546921,320.270966 249.290878,319.913879 
z"/>
<path fill="#ADF3F1" opacity="1.000000" stroke="none" 
	d="
M178.989471,245.745255 
	C178.969147,248.388062 179.051804,250.682846 178.949417,252.969330 
	C178.835114,255.522217 180.106537,258.780701 175.840118,259.504333 
	C175.565094,259.550995 175.612747,261.500122 175.272247,262.776001 
	C173.944214,261.002014 172.063675,259.073700 171.914337,257.019562 
	C171.487579,251.149750 171.764236,245.228775 171.764236,237.639847 
	C174.855072,240.947006 176.932938,243.170288 178.989471,245.745255 
z"/>
<path fill="#B2D0D7" opacity="1.000000" stroke="none" 
	d="
M181.021332,302.525726 
	C179.407501,303.716125 177.752625,304.555908 176.036774,305.707306 
	C174.792007,305.084778 173.608231,304.150635 172.109741,303.129150 
	C171.795013,297.004547 171.795013,290.967224 171.795013,284.929932 
	C172.205231,284.746307 172.615433,284.562653 173.025650,284.379028 
	C174.674179,287.032562 176.322708,289.686066 177.931122,292.948944 
	C178.028839,293.996582 178.166641,294.434845 178.304459,294.873138 
	C178.495728,295.381958 178.686996,295.890747 178.877899,297.057953 
	C179.098358,298.131561 179.319183,298.546814 179.540009,298.962036 
	C180.020096,300.033051 180.500183,301.104095 181.021332,302.525726 
z"/>
<path fill="#ECEFF5" opacity="1.000000" stroke="none" 
	d="
M351.668976,242.298950 
	C356.165344,241.291794 360.505951,240.637634 365.271576,239.984680 
	C365.748352,242.683502 365.800049,245.381119 365.329865,248.521393 
	C360.470245,248.952103 356.132538,248.940155 351.794800,248.928192 
	C351.700928,246.836121 351.607056,244.744034 351.668976,242.298950 
z"/>
<path fill="#EAC9E0" opacity="1.000000" stroke="none" 
	d="
M293.660065,158.083496 
	C296.705872,161.057556 297.608734,164.120850 294.250214,167.695602 
	C293.064301,168.957840 292.919617,171.198257 292.418823,173.404144 
	C292.538055,173.816208 292.503021,173.795334 292.201019,173.616928 
	C288.698059,173.241104 289.045929,174.955612 289.986084,176.989227 
	C288.170776,177.077820 286.355469,177.166412 284.540161,177.254990 
	C284.574921,175.276443 283.920105,172.910156 284.773743,171.392075 
	C287.329620,166.846725 290.475494,162.633087 293.660065,158.083496 
z"/>
<path fill="#DEF4F6" opacity="1.000000" stroke="none" 
	d="
M153.874237,248.550064 
	C149.224457,249.313461 144.646713,249.643829 139.658401,249.977722 
	C139.197632,246.945740 139.147430,243.910233 139.191025,240.427887 
	C143.843536,240.647552 148.402252,241.314056 153.367767,241.982361 
	C153.831818,244.028473 153.889053,246.072754 153.874237,248.550064 
z"/>
<path fill="#1F2E3B" opacity="1.000000" stroke="none" 
	d="
M257.050323,334.980652 
	C256.889496,339.822235 256.902222,344.681488 256.411682,349.489441 
	C256.320801,350.379974 254.193756,351.670135 253.017639,351.658386 
	C251.999756,351.648193 250.291809,350.171844 250.115692,349.135132 
	C249.484756,345.421204 249.374939,341.618774 249.526428,337.410522 
	C252.339981,336.307739 254.695145,335.644196 257.050323,334.980652 
z"/>
<path fill="#C2CAD3" opacity="1.000000" stroke="none" 
	d="
M273.582031,281.946533 
	C273.919830,284.635284 275.118988,285.692352 277.876953,284.487457 
	C279.031311,283.983185 280.215668,283.547607 281.779663,283.085114 
	C279.727875,287.803284 277.282776,292.517151 274.346863,297.587036 
	C271.666565,297.285339 269.477112,296.627655 267.287689,295.970001 
	C269.279907,291.342560 271.272125,286.715149 273.582031,281.946533 
z"/>
<path fill="#B7E3E5" opacity="1.000000" stroke="none" 
	d="
M159.973557,226.027573 
	C166.495193,232.654175 165.019455,241.012390 164.560425,249.483643 
	C162.659424,249.587708 161.159439,249.271790 159.659439,248.955856 
	C159.530090,241.672623 159.400726,234.389389 159.471130,226.711151 
	C159.670898,226.316132 159.973557,226.027573 159.973557,226.027573 
z"/>
<path fill="#98A9B3" opacity="1.000000" stroke="none" 
	d="
M182.032547,329.341278 
	C181.937958,327.534210 181.937958,325.930481 181.937958,325.527039 
	C185.861664,324.994873 189.461502,324.506622 193.431229,324.028656 
	C195.839188,326.796722 197.877258,329.554504 199.631424,332.640686 
	C195.342163,332.637604 191.255875,331.857239 187.883545,335.036316 
	C187.305161,334.590851 186.726776,334.145386 186.035507,333.061798 
	C184.886261,331.650269 183.849915,330.876831 182.813553,330.103424 
	C182.519455,329.997345 182.290649,329.811066 182.032547,329.341278 
z"/>
<path fill="#98A9B3" opacity="1.000000" stroke="none" 
	d="
M249.162842,276.429016 
	C251.489944,275.635986 253.728622,275.302063 256.348816,274.966614 
	C256.765717,279.651825 256.801147,284.338501 256.359589,289.484955 
	C253.681549,289.944733 251.480499,289.944763 249.279449,289.944794 
	C249.211121,285.592560 249.142792,281.240326 249.162842,276.429016 
z"/>
<path fill="#D0F2F2" opacity="1.000000" stroke="none" 
	d="
M163.178268,181.685760 
	C160.417175,181.282013 157.833115,180.577133 155.156250,179.525696 
	C155.127686,178.632034 155.191910,178.084961 155.608398,177.073242 
	C156.061737,176.391220 156.068710,176.170868 155.981583,175.947556 
	C156.686951,173.171646 157.392319,170.395721 158.688492,167.305054 
	C160.826630,168.493042 162.625259,169.821136 163.833679,171.559494 
	C164.649704,172.733383 164.633911,174.485535 164.990234,175.979019 
	C164.445251,177.780899 163.900269,179.582779 163.178268,181.685760 
z"/>
<path fill="#DEF4F6" opacity="1.000000" stroke="none" 
	d="
M200.082306,132.437805 
	C198.422623,134.468369 196.749954,136.161316 194.754364,137.916718 
	C192.925110,133.852936 191.418762,129.726730 189.779785,125.237183 
	C192.145264,123.498398 194.364197,121.867340 196.930267,120.155396 
	C197.141968,122.151146 197.006516,124.227791 196.779922,127.701904 
	C197.101715,127.952194 198.489044,129.031311 199.912659,130.431793 
	C199.989059,131.202164 200.029190,131.651184 200.082306,132.437805 
z"/>
<path fill="#B0B3BF" opacity="1.000000" stroke="none" 
	d="
M333.453430,269.894531 
	C332.846710,277.883759 327.410583,281.643890 321.492004,285.049103 
	C320.169739,285.809875 318.982178,286.804810 318.554413,287.108490 
	C320.438721,280.860870 325.172424,275.120056 330.953247,270.149841 
	C331.523651,269.659393 332.593781,269.750244 333.453430,269.894531 
z"/>
<path fill="#7A909A" opacity="1.000000" stroke="none" 
	d="
M249.180618,290.403442 
	C251.480499,289.944763 253.681549,289.944733 256.294556,289.943237 
	C256.697327,294.463593 256.688141,298.985413 256.538208,303.925476 
	C254.309052,304.216156 252.220612,304.088593 249.695633,303.942505 
	C249.199997,299.570038 249.140884,295.216064 249.180618,290.403442 
z"/>
<path fill="#D5D9E4" opacity="1.000000" stroke="none" 
	d="
M351.645020,249.347565 
	C356.132538,248.940155 360.470245,248.952103 365.250977,248.964050 
	C365.756073,251.012070 365.818176,253.060104 365.418823,255.556076 
	C360.558594,255.981964 356.159821,255.959900 351.761017,255.937820 
	C351.672424,253.880859 351.583832,251.823898 351.645020,249.347565 
z"/>
<path fill="#1F2E3B" opacity="1.000000" stroke="none" 
	d="
M217.974243,363.917572 
	C214.154770,360.757538 210.482529,357.249329 207.046875,353.425720 
	C211.418716,353.213074 216.626846,355.380524 216.925705,348.100098 
	C220.707001,352.995056 222.689453,358.029053 217.974243,363.917572 
z"/>
<path fill="#C2CAD3" opacity="1.000000" stroke="none" 
	d="
M351.614380,256.354004 
	C356.159821,255.959900 360.558594,255.981964 365.342133,255.989319 
	C365.779175,258.013092 365.831482,260.051544 365.824219,262.523926 
	C361.344086,262.985809 356.923523,263.013824 352.101898,262.977173 
	C351.623138,260.865051 351.545441,258.817627 351.614380,256.354004 
z"/>
<path fill="#EDE0EF" opacity="1.000000" stroke="none" 
	d="
M249.197220,190.451599 
	C251.528885,189.665161 253.768768,189.330734 256.391541,188.997711 
	C256.828735,193.019958 256.883087,197.040802 256.864349,201.517700 
	C254.565353,201.971603 252.339432,201.969437 249.697479,201.967316 
	C249.222763,198.279434 249.164108,194.591522 249.197220,190.451599 
z"/>
<path fill="#F2EFF6" opacity="1.000000" stroke="none" 
	d="
M309.092041,142.695526 
	C305.185974,139.881775 305.185974,139.881775 300.187195,145.905579 
	C301.436951,140.836365 303.046692,135.733459 304.850281,130.319702 
	C307.347015,130.999649 309.649933,131.990479 312.316742,133.127960 
	C311.554474,136.315918 310.428284,139.357224 309.092041,142.695526 
z"/>
<path fill="#98A9B3" opacity="1.000000" stroke="none" 
	d="
M320.174957,331.407654 
	C317.709045,331.158112 315.498383,330.565704 313.400970,330.839844 
	C310.624481,331.202759 309.852356,330.091278 309.930237,327.266876 
	C310.855743,325.417419 311.793243,323.978302 312.950012,322.391357 
	C316.821503,323.159790 320.473755,324.076019 324.525574,325.009338 
	C323.443634,327.167786 321.962097,329.309143 320.174957,331.407654 
z"/>
<path fill="#98A9B3" opacity="1.000000" stroke="none" 
	d="
M238.800369,299.984528 
	C238.903809,301.036896 239.007233,302.089233 239.028839,303.979065 
	C238.865311,307.521851 238.783569,310.227112 238.309784,312.941223 
	C235.880341,312.922272 233.842926,312.894531 231.805527,312.866791 
	C231.665131,309.544037 231.524734,306.221283 231.720764,302.426849 
	C234.304932,301.298279 236.552658,300.641418 238.800369,299.984528 
z"/>
<path fill="#596979" opacity="1.000000" stroke="none" 
	d="
M165.862228,277.952972 
	C165.862228,283.081665 165.862228,288.210358 165.862228,293.895203 
	C161.747284,292.666382 159.181519,290.915375 159.209625,286.725220 
	C159.225235,284.399353 159.262711,282.073608 159.759323,279.377136 
	C162.106277,278.655334 163.984253,278.304138 165.862228,277.952972 
z"/>
<path fill="#3F5160" opacity="1.000000" stroke="none" 
	d="
M303.137177,349.197083 
	C301.014069,351.451843 298.890961,353.706604 296.220642,355.784332 
	C293.033020,354.005829 290.392578,352.404327 287.752136,350.802856 
	C287.783508,350.419189 287.814911,350.035553 287.934998,349.105591 
	C288.025604,348.382324 288.027435,348.205383 288.029297,348.028442 
	C288.981659,347.305389 289.934052,346.582336 291.569489,346.048523 
	C295.880768,347.224243 299.508972,348.210663 303.137177,349.197083 
z"/>
<path fill="#617886" opacity="1.000000" stroke="none" 
	d="
M198.548813,345.151611 
	C197.153519,343.926788 195.758224,342.701965 194.241196,340.869812 
	C196.167770,337.791504 198.019073,334.763550 201.907013,337.666901 
	C202.033524,337.761414 202.832275,336.955688 203.317657,336.569580 
	C204.081787,337.225586 204.845932,337.881592 205.943939,338.996765 
	C206.739944,339.721741 207.202042,339.987610 207.664139,340.253479 
	C207.664139,340.253479 207.728851,340.311096 207.846298,340.526398 
	C208.136139,340.980042 208.365524,341.132904 208.651901,341.200226 
	C208.651901,341.200226 208.670273,341.316101 208.779480,341.634399 
	C209.220825,342.638672 209.552963,343.324615 209.480179,344.007019 
	C205.566437,344.386139 202.057617,344.768860 198.548813,345.151611 
z"/>
<path fill="#B0B3BF" opacity="1.000000" stroke="none" 
	d="
M267.163239,296.204529 
	C269.477112,296.627655 271.666565,297.285339 274.209229,297.946045 
	C274.445862,301.341888 274.329285,304.734711 273.731262,308.562744 
	C271.102356,308.638641 268.954895,308.279297 266.807434,307.919952 
	C266.775421,304.910706 266.743408,301.901459 266.836731,298.217651 
	C266.937988,297.345001 266.913940,297.146881 266.889923,296.948761 
	C266.939545,296.778870 266.989166,296.608948 267.163239,296.204529 
z"/>
<path fill="#1F2E3B" opacity="1.000000" stroke="none" 
	d="
M287.416748,350.961792 
	C290.392578,352.404327 293.033020,354.005829 295.909485,355.909241 
	C292.723022,359.529297 289.300507,362.847382 285.550415,366.272583 
	C285.842316,361.293335 286.461823,356.207031 287.416748,350.961792 
z"/>
<path fill="#DEF4F6" opacity="1.000000" stroke="none" 
	d="
M165.190674,175.687317 
	C164.633911,174.485535 164.649704,172.733383 163.833679,171.559494 
	C162.625259,169.821136 160.826630,168.493042 158.921463,166.986130 
	C160.141052,163.683563 161.718460,160.385147 163.621155,156.974487 
	C164.826294,160.995895 165.159393,165.420959 169.800415,167.946930 
	C169.110062,168.805664 167.950363,169.149307 167.553253,169.897614 
	C166.636032,171.626022 166.088562,173.550613 165.190674,175.687317 
z"/>
<path fill="#B2D0D7" opacity="1.000000" stroke="none" 
	d="
M181.085327,284.238800 
	C176.322678,280.245758 172.430084,275.735260 171.703400,269.342010 
	C172.137329,269.008270 172.571259,268.674530 173.005188,268.340820 
	C176.966537,273.325714 180.927887,278.310638 184.604889,283.481232 
	C183.242142,283.857544 182.163727,284.048187 181.085327,284.238800 
z"/>
<path fill="#596979" opacity="1.000000" stroke="none" 
	d="
M345.252167,282.859528 
	C346.965515,288.208984 345.989868,290.366241 339.234985,294.422607 
	C339.234985,288.958099 339.234985,284.082458 339.630737,279.385529 
	C339.823639,283.746674 342.705811,283.036804 345.252167,282.859528 
z"/>
<path fill="#9BBDC5" opacity="1.000000" stroke="none" 
	d="
M142.116638,272.309570 
	C143.943954,272.575989 145.786774,273.490204 147.705032,273.693909 
	C149.500824,273.884583 151.376587,273.322418 153.526794,273.033020 
	C153.836441,276.560974 153.836441,280.147491 153.836441,283.733978 
	C153.446533,284.007629 153.056610,284.281250 152.666702,284.554901 
	C149.166153,280.585663 145.665619,276.616425 142.116638,272.309570 
z"/>
<path fill="#7A909A" opacity="1.000000" stroke="none" 
	d="
M231.621536,313.292633 
	C233.842926,312.894531 235.880341,312.922272 238.419617,313.231384 
	C239.009109,313.699982 239.096756,313.887268 239.184402,314.074585 
	C239.157028,316.077942 239.129654,318.081299 239.000916,320.834290 
	C238.832169,322.028961 238.764801,322.473969 238.324554,322.933411 
	C235.876221,322.590240 233.800735,322.232605 231.725266,321.874969 
	C231.629364,319.156128 231.533447,316.437317 231.621536,313.292633 
z"/>
<path fill="#2F424E" opacity="1.000000" stroke="none" 
	d="
M273.099731,337.697754 
	C272.764862,342.714172 270.910858,347.017883 267.539124,350.609497 
	C266.925354,350.538696 266.311554,350.467865 265.697784,350.397064 
	C265.883820,346.450745 266.069855,342.504456 266.719238,338.215515 
	C269.154968,337.814453 271.127350,337.756104 273.099731,337.697754 
z"/>
<path fill="#9BBDC5" opacity="1.000000" stroke="none" 
	d="
M159.751312,270.842865 
	C159.628586,267.170502 159.505859,263.498138 159.901367,259.393311 
	C161.888290,258.965820 163.356979,258.970825 164.825668,258.975830 
	C164.856445,262.663208 164.887222,266.350586 164.500488,270.501831 
	C162.639099,270.924744 161.195206,270.883789 159.751312,270.842865 
z"/>
<path fill="#2F424E" opacity="1.000000" stroke="none" 
	d="
M239.002823,338.996338 
	C239.756470,342.371033 240.510101,345.745697 241.263748,349.120392 
	C235.312103,347.435486 233.310883,343.394165 232.712708,338.293884 
	C235.100235,338.299988 237.051529,338.648163 239.002823,338.996338 
z"/>
<path fill="#9BBDC5" opacity="1.000000" stroke="none" 
	d="
M167.142120,226.000275 
	C165.336716,222.868332 163.531296,219.736389 162.060333,216.304688 
	C166.492599,217.872620 167.325180,215.107605 167.969574,212.075623 
	C168.667816,214.421463 169.366043,216.767288 170.052734,219.675110 
	C170.064545,220.490952 170.173615,220.700058 170.368439,220.864426 
	C170.601395,221.622421 170.834335,222.380402 170.896637,223.837326 
	C169.531357,225.024261 168.336746,225.512268 167.142120,226.000275 
z"/>
<path fill="#C2CAD3" opacity="1.000000" stroke="none" 
	d="
M339.783630,253.428284 
	C341.527710,252.968674 343.136078,252.952576 345.144531,252.929108 
	C345.592621,256.629486 345.640533,260.337219 345.231201,264.476562 
	C343.171265,264.606415 341.568634,264.304718 339.965942,264.003021 
	C339.859955,260.625946 339.753937,257.248871 339.783630,253.428284 
z"/>
<path fill="#2F424E" opacity="1.000000" stroke="none" 
	d="
M257.060791,334.615601 
	C254.695145,335.644196 252.339981,336.307739 249.583557,336.951355 
	C249.143524,336.197174 249.104767,335.462891 249.299561,334.122498 
	C249.417984,331.645905 249.302841,329.775421 249.610321,327.932739 
	C252.293213,327.942352 254.553467,327.924194 256.864502,328.319702 
	C256.959351,329.841675 257.003448,330.950043 257.047546,332.058380 
	C257.055450,332.789124 257.063354,333.519836 257.060791,334.615601 
z"/>
<path fill="#7A909A" opacity="1.000000" stroke="none" 
	d="
M203.092560,336.357300 
	C202.832275,336.955688 202.033524,337.761414 201.907013,337.666901 
	C198.019073,334.763550 196.167770,337.791504 194.074677,340.601379 
	C192.088898,339.165741 190.147873,337.391174 188.045197,335.326477 
	C191.255875,331.857239 195.342163,332.637604 199.764099,332.961792 
	C201.076263,334.018005 201.971848,335.081512 203.092560,336.357300 
z"/>
<path fill="#B2D0D7" opacity="1.000000" stroke="none" 
	d="
M231.094971,296.957214 
	C229.793777,294.199921 228.492569,291.442596 227.477524,288.376190 
	C229.262543,288.634399 230.761429,289.201691 232.601303,289.898041 
	C233.199799,288.307037 233.707199,286.958221 234.214600,285.609375 
	C235.455017,288.481842 236.695419,291.354279 237.550415,294.615234 
	C235.141632,295.654877 233.118301,296.306061 231.094971,296.957214 
z"/>
<path fill="#596979" opacity="1.000000" stroke="none" 
	d="
M303.421082,349.046844 
	C299.508972,348.210663 295.880768,347.224243 291.887726,346.060059 
	C293.020386,344.640167 294.517883,343.397980 296.670776,342.154633 
	C300.556244,343.108521 303.786316,344.063568 307.016418,345.018646 
	C305.912598,346.311310 304.808807,347.603943 303.421082,349.046844 
z"/>
<path fill="#3F5160" opacity="1.000000" stroke="none" 
	d="
M216.793579,347.883240 
	C216.626846,355.380524 211.418716,353.213074 206.849030,353.132568 
	C204.836105,351.690277 203.257614,350.225739 201.958435,348.435059 
	C206.373627,347.757996 210.509491,347.407074 214.933197,347.084106 
	C215.413406,347.125763 215.605728,347.139435 215.798050,347.153137 
	C216.085861,347.324219 216.373657,347.495300 216.793579,347.883240 
z"/>
<path fill="#98A9B3" opacity="1.000000" stroke="none" 
	d="
M266.647064,308.315613 
	C268.954895,308.279297 271.102356,308.638641 273.637878,308.992737 
	C273.731689,311.689697 273.437469,314.391907 272.273926,317.077179 
	C270.204651,317.027374 269.004669,316.994507 267.840210,316.658142 
	C267.388947,315.784363 266.902130,315.214020 266.415344,314.643677 
	C266.439117,312.666199 266.462921,310.688721 266.647064,308.315613 
z"/>
<path fill="#98A9B3" opacity="1.000000" stroke="none" 
	d="
M200.880615,323.896271 
	C202.767349,322.402496 204.786423,321.192596 206.862778,319.625824 
	C208.070374,321.797119 209.220688,324.325256 210.710815,327.406006 
	C211.158813,328.129700 211.266983,328.300751 211.375137,328.471771 
	C211.497681,328.597382 211.620209,328.722992 211.334427,329.012787 
	C209.276443,329.451599 207.626785,329.726227 205.977127,330.000824 
	C204.322388,328.060608 202.667648,326.120361 200.880615,323.896271 
z"/>
<path fill="#B7E3E5" opacity="1.000000" stroke="none" 
	d="
M234.133133,285.287231 
	C233.707199,286.958221 233.199799,288.307037 232.601303,289.898041 
	C230.761429,289.201691 229.262543,288.634399 227.412811,288.025909 
	C226.394150,287.256195 225.726364,286.527710 224.988647,285.509521 
	C225.874344,283.320404 226.829971,281.420959 227.923141,279.189728 
	C230.057678,280.893646 232.054672,282.929352 234.133133,285.287231 
z"/>
<path fill="#3F5160" opacity="1.000000" stroke="none" 
	d="
M256.813721,327.906006 
	C254.553467,327.924194 252.293213,327.942352 249.574219,327.621643 
	C249.088242,326.865051 249.061020,326.447327 249.033813,326.029602 
	C249.053116,324.277100 249.072418,322.524567 249.191315,320.342957 
	C251.546921,320.270966 253.802979,320.628052 256.438782,321.016113 
	C256.818573,321.047089 256.923920,320.929962 256.951111,321.380798 
	C256.923462,323.856415 256.868591,325.881226 256.813721,327.906006 
z"/>
<path fill="#617886" opacity="1.000000" stroke="none" 
	d="
M307.330719,344.914429 
	C303.786316,344.063568 300.556244,343.108521 296.944397,341.999268 
	C297.628937,340.680664 298.695251,339.516266 300.039001,338.155640 
	C303.974518,338.636688 307.632568,339.313965 311.677765,339.982605 
	C310.591583,341.586090 309.118317,343.198151 307.330719,344.914429 
z"/>
<path fill="#B2D0D7" opacity="1.000000" stroke="none" 
	d="
M164.890198,258.530579 
	C163.356979,258.970825 161.888290,258.965820 160.055328,258.954437 
	C159.583267,255.907883 159.475494,252.867706 159.513580,249.391693 
	C161.159439,249.271790 162.659424,249.587708 164.490265,249.945847 
	C164.865631,252.687149 164.910187,255.386230 164.890198,258.530579 
z"/>
<path fill="#7A909A" opacity="1.000000" stroke="none" 
	d="
M267.804688,316.961609 
	C269.004669,316.994507 270.204651,317.027374 271.853546,317.099304 
	C272.924622,319.491302 273.546783,321.844238 273.710266,324.594177 
	C271.079956,324.617767 268.908325,324.244354 266.736664,323.870941 
	C266.601349,321.943085 266.466003,320.015198 266.575378,317.611938 
	C267.148285,317.078217 267.476471,317.019928 267.804688,316.961609 
z"/>
<path fill="#617886" opacity="1.000000" stroke="none" 
	d="
M266.568787,324.291962 
	C268.908325,324.244354 271.079956,324.617767 273.635620,324.994873 
	C274.045105,327.041992 274.070587,329.085419 273.630554,331.506470 
	C271.003510,331.562408 268.842010,331.240662 266.680481,330.918915 
	C266.587280,328.850281 266.494080,326.781616 266.568787,324.291962 
z"/>
<path fill="#596979" opacity="1.000000" stroke="none" 
	d="
M266.525299,331.330444 
	C268.842010,331.240662 271.003510,331.562408 273.535431,331.935059 
	C273.767090,333.643250 273.628357,335.300537 273.294678,337.327789 
	C271.127350,337.756104 269.154968,337.814453 266.863129,337.823608 
	C266.485809,335.763580 266.427948,333.752808 266.525299,331.330444 
z"/>
<path fill="#B0B3BF" opacity="1.000000" stroke="none" 
	d="
M339.838165,264.415955 
	C341.568634,264.304718 343.171265,264.606415 345.122192,264.922089 
	C345.524841,266.926697 345.579224,268.917328 345.297241,271.370605 
	C344.237732,272.515350 343.514618,273.197510 342.613708,273.892700 
	C342.435883,273.905731 342.081024,273.941010 341.786682,273.787231 
	C340.924835,272.705444 340.357300,271.777405 339.789764,270.849365 
	C339.763306,268.842529 339.736847,266.835693 339.838165,264.415955 
z"/>
<path fill="#7A909A" opacity="1.000000" stroke="none" 
	d="
M159.564117,271.258575 
	C161.195206,270.883789 162.639099,270.924744 164.448364,270.957214 
	C165.092865,273.030945 165.371964,275.113159 165.756653,277.574158 
	C163.984253,278.304138 162.106277,278.655334 159.920288,278.942322 
	C159.533829,276.476837 159.455368,274.075562 159.564117,271.258575 
z"/>
<path fill="#7A909A" opacity="1.000000" stroke="none" 
	d="
M342.081055,273.941010 
	C342.081024,273.941010 342.435883,273.905731 342.809387,274.155853 
	C343.996674,274.641174 344.810455,274.876343 345.624268,275.111511 
	C345.577972,277.416382 345.531677,279.721283 345.368774,282.442841 
	C342.705811,283.036804 339.823639,283.746674 339.922241,279.166718 
	C339.806702,278.361145 339.795441,277.953125 340.205017,277.134125 
	C341.110901,275.795807 341.595978,274.868408 342.081055,273.941010 
z"/>
<path fill="#9BBDC5" opacity="1.000000" stroke="none" 
	d="
M231.053772,297.378601 
	C233.118301,296.306061 235.141632,295.654877 237.535431,294.995148 
	C238.237244,296.408142 238.568619,297.829681 238.850189,299.617859 
	C236.552658,300.641418 234.304932,301.298279 231.703491,301.967560 
	C231.237350,300.586639 231.124954,299.193329 231.053772,297.378601 
z"/>
<path fill="#596979" opacity="1.000000" stroke="none" 
	d="
M231.622940,333.725128 
	C231.533127,331.742096 231.443298,329.759064 231.882858,327.374634 
	C234.592712,326.980072 236.773178,326.986938 238.953659,326.993774 
	C239.013885,327.414917 239.074112,327.836029 239.052582,328.939697 
	C239.010971,330.110291 239.051117,330.598358 239.091248,331.086395 
	C239.091248,331.086395 239.095459,331.547974 238.668915,331.774963 
	C236.137558,332.550659 234.032730,333.099365 231.854462,333.678406 
	C231.781021,333.708740 231.622940,333.725128 231.622940,333.725128 
z"/>
<path fill="#B2D0D7" opacity="1.000000" stroke="none" 
	d="
M167.966766,211.805359 
	C167.325180,215.107605 166.492599,217.872620 162.079483,215.976715 
	C161.131485,213.904953 160.498779,211.861359 159.936340,209.413788 
	C162.117615,209.663300 164.228592,210.316788 166.720978,210.971405 
	C167.389572,211.160065 167.676758,211.347580 167.966766,211.805359 
z"/>
<path fill="#3F5160" opacity="1.000000" stroke="none" 
	d="
M231.927917,333.648071 
	C234.032730,333.099365 236.137558,332.550659 238.630508,332.002533 
	C239.040451,334.043701 239.062256,336.084259 239.043442,338.560547 
	C237.051529,338.648163 235.100235,338.299988 232.796051,337.928528 
	C232.443176,337.905273 232.260910,337.779572 232.177750,337.301758 
	C232.039032,335.765320 231.983459,334.706696 231.927917,333.648071 
z"/>
<path fill="#7A909A" opacity="1.000000" stroke="none" 
	d="
M206.044861,330.317108 
	C207.626785,329.726227 209.276443,329.451599 211.375427,329.272797 
	C212.502853,331.344177 213.180969,333.319763 213.944000,335.914398 
	C214.091751,336.710388 214.154587,336.887329 214.217438,337.064270 
	C214.217438,337.064270 214.107605,337.522095 213.816559,337.623749 
	C212.945953,337.349091 212.366379,336.972778 211.786819,336.596466 
	C211.786819,336.596466 211.651215,336.373352 211.438507,336.080231 
	C210.823486,335.509186 210.421173,335.231232 210.018860,334.953308 
	C208.716766,333.513336 207.414673,332.073364 206.044861,330.317108 
z"/>
<path fill="#617886" opacity="1.000000" stroke="none" 
	d="
M239.024658,326.771576 
	C236.773178,326.986938 234.592712,326.980072 232.022308,326.967957 
	C231.548981,325.533569 231.465591,324.104431 231.553741,322.275146 
	C233.800735,322.232605 235.876221,322.590240 238.393585,323.327423 
	C238.931778,324.499237 239.028076,325.291504 239.124390,326.083771 
	C239.124390,326.083771 239.095657,326.549377 239.024658,326.771576 
z"/>
<path fill="#1F2E3B" opacity="1.000000" stroke="none" 
	d="
M211.566711,336.985840 
	C212.366379,336.972778 212.945953,337.349091 213.759460,337.852112 
	C214.278931,340.439667 214.564468,342.900452 214.798706,345.806488 
	C214.747375,346.251709 214.553391,346.447266 214.269043,346.293793 
	C212.618164,345.430389 211.251648,344.720490 209.885117,344.010590 
	C209.552963,343.324615 209.220825,342.638672 208.816315,341.680054 
	C209.611496,340.063385 210.479050,338.719299 211.566711,336.985840 
z"/>
<path fill="#98A9B3" opacity="1.000000" stroke="none" 
	d="
M167.231308,226.318527 
	C168.336746,225.512268 169.531357,225.024261 170.894333,224.240051 
	C171.705582,226.445221 172.348480,228.946594 172.991379,231.447952 
	C172.727509,231.604614 172.463623,231.761276 172.199753,231.917938 
	C170.573334,230.157547 168.946915,228.397171 167.231308,226.318527 
z"/>
<path fill="#9BBDC5" opacity="1.000000" stroke="none" 
	d="
M181.191803,284.535828 
	C182.163727,284.048187 183.242142,283.857544 184.742340,283.815247 
	C185.900208,285.081207 186.636261,286.198853 187.372314,287.316528 
	C186.959961,287.746826 186.547623,288.177155 186.135269,288.607483 
	C184.522934,287.349274 182.910614,286.091095 181.191803,284.535828 
z"/>
<path fill="#B0B3BF" opacity="1.000000" stroke="none" 
	d="
M333.917114,226.484131 
	C334.583496,226.807816 335.076019,227.382568 335.879395,228.001526 
	C335.323486,229.160614 334.456665,230.275528 333.589874,231.390442 
	C333.317566,231.300095 333.045258,231.209747 332.772949,231.119400 
	C333.096375,229.658005 333.419800,228.196594 333.917114,226.484131 
z"/>
<path fill="#1F2E3B" opacity="1.000000" stroke="none" 
	d="
M256.864502,328.319672 
	C256.868591,325.881226 256.923462,323.856415 257.028229,321.396790 
	C257.233826,324.447723 257.389496,327.933502 257.296326,331.738831 
	C257.003448,330.950043 256.959351,329.841675 256.864502,328.319672 
z"/>
<path fill="#596979" opacity="1.000000" stroke="none" 
	d="
M341.786713,273.787231 
	C341.595978,274.868408 341.110901,275.795807 340.343689,276.858948 
	C339.848083,275.155762 339.634552,273.316833 339.605408,271.163635 
	C340.357300,271.777405 340.924835,272.705444 341.786713,273.787231 
z"/>
<path fill="#2F424E" opacity="1.000000" stroke="none" 
	d="
M239.389771,313.736664 
	C239.096756,313.887268 239.009109,313.699982 238.811646,313.222565 
	C238.783569,310.227112 238.865311,307.521851 239.060425,304.376038 
	C239.314255,307.089935 239.454712,310.244324 239.389771,313.736664 
z"/>
<path fill="#1F2E3B" opacity="1.000000" stroke="none" 
	d="
M248.752747,326.294769 
	C249.061020,326.447327 249.088242,326.865051 249.151581,327.593872 
	C249.302841,329.775421 249.417984,331.645905 249.300018,333.753967 
	C248.868484,331.514343 248.670090,329.037140 248.752747,326.294769 
z"/>
<path fill="#596979" opacity="1.000000" stroke="none" 
	d="
M345.744751,274.698059 
	C344.810455,274.876343 343.996674,274.641174 342.987183,274.142822 
	C343.514618,273.197510 344.237732,272.515350 345.261627,271.795654 
	C345.663361,272.600281 345.764282,273.442474 345.744751,274.698059 
z"/>
<path fill="#7A909A" opacity="1.000000" stroke="none" 
	d="
M345.810516,227.818634 
	C345.319885,228.144821 344.964417,228.126770 344.340637,228.082092 
	C344.387756,226.707809 344.703094,225.360138 345.018463,224.012482 
	C345.271698,224.029388 345.524963,224.046310 345.778198,224.063217 
	C345.834015,225.200272 345.889832,226.337326 345.810516,227.818634 
z"/>
<path fill="#EDE0EF" opacity="1.000000" stroke="none" 
	d="
M290.262146,176.867813 
	C289.045929,174.955612 288.698059,173.241104 292.218140,173.626907 
	C291.870911,174.792328 291.204559,175.769363 290.262146,176.867813 
z"/>
<path fill="#2F424E" opacity="1.000000" stroke="none" 
	d="
M239.323410,325.804932 
	C239.028076,325.291504 238.931778,324.499237 238.766449,323.312988 
	C238.764801,322.473969 238.832169,322.028961 239.007080,321.263763 
	C239.250549,322.471100 239.386490,323.998596 239.323410,325.804932 
z"/>
<path fill="#DEF4F6" opacity="1.000000" stroke="none" 
	d="
M217.718674,250.014603 
	C217.301865,250.018631 216.678253,249.817963 216.019379,249.342667 
	C216.493362,249.315308 217.002609,249.562607 217.718674,250.014603 
z"/>
<path fill="#2F424E" opacity="1.000000" stroke="none" 
	d="
M267.840210,316.658173 
	C267.476471,317.019928 267.148285,317.078217 266.575470,317.193634 
	C266.257080,316.663422 266.183319,316.076111 266.262451,315.066223 
	C266.902130,315.214020 267.388947,315.784363 267.840210,316.658173 
z"/>
<path fill="#C2CAD3" opacity="1.000000" stroke="none" 
	d="
M278.520721,276.758423 
	C278.314972,277.367889 277.804657,278.087036 276.917114,278.797424 
	C277.098602,278.148499 277.657379,277.508301 278.520721,276.758423 
z"/>
<path fill="#2F424E" opacity="1.000000" stroke="none" 
	d="
M231.854462,333.678406 
	C231.983459,334.706696 232.039032,335.765320 232.129761,337.201996 
	C231.882935,336.529480 231.600937,335.478912 231.470947,334.076721 
	C231.622940,333.725128 231.781021,333.708740 231.854462,333.678406 
z"/>
<path fill="#596979" opacity="1.000000" stroke="none" 
	d="
M160.034149,225.778000 
	C159.973557,226.027573 159.670898,226.316132 159.470993,226.254852 
	C159.263489,225.812622 159.255890,225.431671 159.248291,225.050705 
	C159.530441,225.209946 159.812576,225.369186 160.034149,225.778000 
z"/>
<path fill="#9BBDC5" opacity="1.000000" stroke="none" 
	d="
M178.370972,294.643555 
	C178.166641,294.434845 178.028839,293.996582 177.925690,293.324585 
	C178.119400,293.531891 178.278442,293.972900 178.370972,294.643555 
z"/>
<path fill="#1F2E3B" opacity="1.000000" stroke="none" 
	d="
M207.645203,339.955139 
	C207.202042,339.987610 206.739944,339.721741 206.167618,339.204346 
	C206.580353,339.187469 207.103317,339.422150 207.645203,339.955139 
z"/>
<path fill="#9BBDC5" opacity="1.000000" stroke="none" 
	d="
M179.539139,298.724670 
	C179.319183,298.546814 179.098358,298.131561 178.896484,297.471100 
	C179.123032,297.646362 179.330643,298.066833 179.539139,298.724670 
z"/>
<path fill="#1F2E3B" opacity="1.000000" stroke="none" 
	d="
M210.051834,335.265320 
	C210.421173,335.231232 210.823486,335.509186 211.327911,336.010864 
	C210.981628,336.015564 210.533218,335.796448 210.051834,335.265320 
z"/>
<path fill="#98A9B3" opacity="1.000000" stroke="none" 
	d="
M352.953369,207.746384 
	C352.856384,207.992157 352.657898,208.028046 352.157715,208.040329 
	C351.779083,207.806503 351.702209,207.596268 351.625336,207.386017 
	C352.034180,207.436188 352.443054,207.486343 352.953369,207.746384 
z"/>
<path fill="#2F424E" opacity="1.000000" stroke="none" 
	d="
M239.276764,330.906372 
	C239.051117,330.598358 239.010971,330.110291 239.043121,329.260010 
	C239.231018,329.507324 239.346649,330.116852 239.276764,330.906372 
z"/>
<path fill="#B0B3BF" opacity="1.000000" stroke="none" 
	d="
M344.031616,215.561859 
	C343.901428,215.338654 343.908813,214.966873 344.005005,214.429443 
	C344.118958,214.646957 344.144104,215.030106 344.031616,215.561859 
z"/>
<path fill="#1F2E3B" opacity="1.000000" stroke="none" 
	d="
M287.864746,348.110657 
	C288.027435,348.205383 288.025604,348.382324 287.962585,348.818176 
	C287.768646,348.884705 287.613464,348.702606 287.517395,348.493378 
	C287.490021,348.433777 287.634552,348.295258 287.864746,348.110657 
z"/>
<path fill="#B7E3E5" opacity="1.000000" stroke="none" 
	d="
M227.075562,277.656189 
	C226.869278,277.759216 226.573257,277.574310 226.160355,277.149780 
	C226.357590,277.062866 226.671707,277.215546 227.075562,277.656189 
z"/>
<path fill="#9BBDC5" opacity="1.000000" stroke="none" 
	d="
M171.502380,283.499268 
	C171.518906,283.489899 171.485840,283.508636 171.502380,283.499268 
z"/>
<path fill="#1F2E3B" opacity="1.000000" stroke="none" 
	d="
M215.746460,346.910461 
	C215.605728,347.139435 215.413406,347.125763 214.939331,346.927124 
	C214.657593,346.742157 214.553391,346.447266 214.553391,346.447266 
	C214.553391,346.447266 214.747375,346.251709 214.843292,346.153687 
	C215.271606,346.160370 215.523499,346.364410 215.746460,346.910461 
z"/>
<path fill="#D5D9E4" opacity="1.000000" stroke="none" 
	d="
M153.615692,207.876007 
	C153.556335,208.056061 153.230484,208.132019 153.085236,208.048950 
	C153.185028,207.875885 153.430038,207.785904 153.615692,207.876007 
z"/>
<path fill="#D5D9E4" opacity="1.000000" stroke="none" 
	d="
M153.870178,232.757721 
	C153.683563,232.735977 153.582169,232.459198 153.629028,232.088867 
	C153.836639,232.164444 153.895996,232.333572 153.870178,232.757721 
z"/>
<path fill="#B0B3BF" opacity="1.000000" stroke="none" 
	d="
M334.933960,222.204819 
	C335.049652,222.139023 335.097626,222.531891 335.035889,222.613449 
	C334.974182,222.695007 334.768860,222.529770 334.768860,222.529770 
	C334.768860,222.529770 334.818298,222.270615 334.933960,222.204819 
z"/>
<path fill="#1F2E3B" opacity="1.000000" stroke="none" 
	d="
M208.660980,340.945740 
	C208.365524,341.132904 208.136139,340.980042 207.882690,340.549927 
	C208.091110,340.469177 208.380585,340.580200 208.660980,340.945740 
z"/>
<path fill="#9BBDC5" opacity="1.000000" stroke="none" 
	d="
M140.733826,270.243774 
	C140.805603,270.127716 141.080582,270.417084 141.079651,270.520386 
	C140.854614,270.670013 140.715729,270.582062 140.733826,270.243774 
z"/>
<path fill="#B0B3BF" opacity="1.000000" stroke="none" 
	d="
M337.955933,209.212509 
	C338.057617,209.153534 338.115601,209.494797 338.060974,209.566406 
	C338.006378,209.638016 337.854248,209.271484 337.955933,209.212509 
z"/>
<path fill="#1F2E3B" opacity="1.000000" stroke="none" 
	d="
M214.356384,336.944580 
	C214.154587,336.887329 214.091751,336.710388 214.045868,336.252197 
	C214.207016,336.255585 214.351181,336.540222 214.356384,336.944580 
z"/>
<path fill="#B7E3E5" opacity="1.000000" stroke="none" 
	d="
M155.842926,176.066772 
	C156.068710,176.170868 156.061737,176.391220 155.852509,176.738434 
	C155.562973,176.650787 155.549606,176.423355 155.842926,176.066772 
z"/>
<path fill="#2F424E" opacity="1.000000" stroke="none" 
	d="
M266.737946,297.055298 
	C266.913940,297.146881 266.937988,297.345001 266.848999,297.820557 
	C266.625488,297.893250 266.488617,297.696991 266.418365,297.479248 
	C266.392731,297.399750 266.525482,297.269135 266.737946,297.055298 
z"/>
<path fill="#F2EFF6" opacity="1.000000" stroke="none" 
	d="
M307.028748,147.777542 
	C306.764648,147.782928 306.638184,147.587112 306.551697,147.375000 
	C306.540314,147.347015 306.732697,147.235886 307.009583,147.112122 
	C307.185272,147.231094 307.182098,147.401169 307.028748,147.777542 
z"/>
<path fill="#98A9B3" opacity="1.000000" stroke="none" 
	d="
M170.417694,220.682251 
	C170.173615,220.700058 170.064545,220.490952 170.058411,220.057190 
	C170.305511,220.022446 170.435959,220.230026 170.417694,220.682251 
z"/>
<path fill="#B0B3BF" opacity="1.000000" stroke="none" 
	d="
M335.948029,218.228394 
	C336.060150,218.168930 336.109467,218.525833 336.051697,218.599304 
	C335.993958,218.672791 335.785645,218.533691 335.785645,218.533691 
	C335.785645,218.533691 335.835907,218.287857 335.948029,218.228394 
z"/>
<path fill="#9BBDC5" opacity="1.000000" stroke="none" 
	d="
M171.816498,330.009399 
	C171.919113,329.913605 172.189285,330.263397 172.156219,330.481720 
	C171.821045,330.646454 171.684616,330.448181 171.816498,330.009399 
z"/>
<path fill="#7A909A" opacity="1.000000" stroke="none" 
	d="
M211.461548,328.307373 
	C211.266983,328.300751 211.158813,328.129700 210.989594,327.661163 
	C211.135010,327.623444 211.341476,327.883209 211.461548,328.307373 
z"/>
<path fill="#F2EFF6" opacity="1.000000" stroke="none" 
	d="
M347.313843,170.608490 
	C347.367279,170.516617 347.286072,170.206955 347.075653,169.671509 
	C347.081055,169.745819 347.158661,170.060806 347.313843,170.608490 
z"/>
<path fill="#7A909A" opacity="1.000000" stroke="none" 
	d="
M274.865051,384.734680 
	C273.141113,385.573547 271.298462,386.536530 269.451172,386.545502 
	C264.094299,386.571472 258.737122,386.111450 253.377243,386.032532 
	C245.859131,385.921814 238.338501,385.982788 230.342072,385.946594 
	C231.803284,383.793854 233.741364,381.664886 236.250732,379.285156 
	C241.399963,378.996490 245.978912,379.006409 250.555573,378.908997 
	C256.548004,378.781433 262.538696,378.569122 268.530121,378.393311 
	C270.601471,380.403198 272.672821,382.413116 274.865051,384.734680 
z"/>
<path fill="#98A9B3" opacity="1.000000" stroke="none" 
	d="
M268.373352,378.117310 
	C262.538696,378.569122 256.548004,378.781433 250.555573,378.908997 
	C245.978912,379.006409 241.399963,378.996490 236.485214,379.050110 
	C241.841354,368.283844 251.943710,370.729065 260.985535,371.453064 
	C263.549927,371.658417 265.814484,375.608551 268.373352,378.117310 
z"/>
<path fill="#596979" opacity="1.000000" stroke="none" 
	d="
M214.269043,346.293793 
	C214.553391,346.447266 214.657593,346.742157 214.651459,346.899170 
	C210.509491,347.407074 206.373627,347.757996 201.774902,348.149689 
	C200.475739,347.363159 199.639465,346.535858 198.675995,345.430084 
	C202.057617,344.768860 205.566437,344.386139 209.480179,344.007019 
	C211.251648,344.720490 212.618164,345.430389 214.269043,346.293793 
z"/>
<path fill="#9BBDC5" opacity="1.000000" stroke="none" 
	d="
M182.966721,330.379028 
	C183.849915,330.876831 184.886261,331.650269 185.896088,332.820648 
	C184.952988,332.363312 184.036438,331.508972 182.966721,330.379028 
z"/>
<path fill="#F2EFF6" opacity="1.000000" stroke="none" 
	d="
M306.531830,239.548920 
	C306.477844,239.580856 306.585815,239.516983 306.531830,239.548920 
z"/>
</svg>